<?xml version="1.0" standalone="no"?>
<!DOCTYPE svg PUBLIC "-//W3C//DTD SVG 20010904//EN"
 "http://www.w3.org/TR/2001/REC-SVG-20010904/DTD/svg10.dtd">
<svg version="1.0" xmlns="http://www.w3.org/2000/svg"
 width="2048.000000pt" height="2048.000000pt" viewBox="0 0 2048.000000 2048.000000"
 preserveAspectRatio="xMidYMid meet">

<g transform="translate(0.000000,2048.000000) scale(0.100000,-0.100000)"
fill="#000000" stroke="none">
<path d="M9606 16263 c-4 -5 -35 -8 -69 -9 -34 0 -114 -8 -177 -18 -63 -9
-155 -21 -205 -26 -49 -5 -128 -18 -175 -29 -47 -11 -103 -21 -125 -21 -22 0
-76 -11 -120 -25 -44 -14 -101 -32 -126 -40 -26 -8 -56 -15 -67 -15 -11 0 -25
-7 -32 -15 -7 -8 -24 -15 -37 -15 -46 0 -143 -30 -226 -70 -45 -22 -94 -40
-109 -40 -15 0 -29 -4 -32 -9 -3 -4 -32 -16 -65 -25 -32 -9 -64 -23 -71 -31
-7 -8 -20 -15 -30 -15 -10 0 -23 -7 -30 -15 -7 -8 -22 -15 -34 -15 -12 0 -27
-9 -34 -20 -7 -11 -19 -20 -27 -20 -8 0 -23 -4 -33 -9 -9 -5 -61 -30 -115 -55
-53 -26 -117 -63 -142 -81 -24 -19 -57 -37 -72 -41 -16 -4 -37 -15 -48 -26
-28 -26 -201 -138 -215 -138 -6 0 -15 -11 -20 -25 -5 -14 -16 -25 -25 -25 -8
0 -15 -5 -15 -10 0 -6 -10 -15 -22 -20 -36 -16 -61 -33 -81 -57 -10 -13 -25
-23 -32 -23 -18 0 -48 -44 -50 -73 -1 -17 -10 -23 -36 -28 -19 -3 -48 -14 -64
-25 -39 -25 -215 -195 -215 -207 0 -13 -60 -67 -74 -67 -15 -1 -56 -85 -56
-115 0 -20 -5 -25 -24 -25 -48 0 -85 -25 -111 -75 -28 -51 -55 -90 -92 -131
-13 -14 -23 -28 -23 -32 0 -4 -13 -20 -30 -35 -16 -16 -30 -37 -30 -47 0 -9
-7 -23 -15 -30 -8 -7 -15 -18 -15 -25 0 -7 -20 -34 -45 -59 -25 -26 -45 -53
-45 -62 0 -8 -6 -17 -14 -20 -8 -3 -17 -16 -20 -28 -3 -13 -19 -40 -36 -61
-16 -21 -30 -44 -30 -51 0 -7 -6 -17 -12 -21 -15 -9 -33 -37 -48 -70 -5 -13
-19 -42 -30 -65 -11 -23 -20 -50 -20 -60 0 -10 -7 -21 -16 -25 -8 -3 -40 -57
-70 -119 -31 -63 -66 -127 -79 -142 -32 -39 -66 -105 -69 -139 -2 -16 -9 -28
-17 -28 -32 -1 -89 -65 -123 -137 -10 -20 -24 -39 -32 -42 -8 -3 -14 -12 -14
-21 0 -9 -20 -36 -44 -61 -24 -25 -49 -64 -56 -85 -7 -22 -19 -44 -27 -50 -7
-6 -13 -16 -13 -21 0 -5 -22 -46 -48 -91 -26 -45 -54 -96 -61 -114 -7 -17 -19
-34 -26 -36 -7 -3 -15 -21 -19 -40 -3 -18 -17 -44 -31 -57 -13 -12 -27 -35
-30 -51 -4 -16 -11 -31 -16 -34 -5 -4 -9 -14 -9 -24 0 -10 -7 -24 -15 -31 -8
-7 -15 -20 -15 -30 0 -10 -7 -20 -15 -24 -8 -3 -15 -16 -15 -30 0 -14 -4 -27
-9 -31 -5 -3 -15 -22 -22 -43 -7 -20 -18 -41 -24 -47 -7 -5 -18 -28 -25 -50
-7 -22 -23 -61 -36 -87 -13 -26 -24 -60 -24 -76 0 -16 -7 -35 -15 -42 -8 -7
-15 -22 -15 -34 0 -11 -13 -43 -29 -70 -16 -27 -27 -55 -24 -63 3 -7 0 -20 -7
-27 -6 -8 -13 -31 -16 -50 -2 -20 -13 -50 -24 -68 -11 -18 -20 -44 -20 -57 0
-13 -9 -40 -20 -60 -10 -20 -37 -97 -59 -171 -21 -74 -46 -153 -55 -175 -8
-22 -15 -57 -16 -77 0 -21 -7 -57 -14 -80 -8 -24 -20 -74 -26 -113 -6 -38 -18
-80 -26 -93 -9 -13 -17 -59 -21 -110 -3 -48 -12 -102 -19 -121 -8 -19 -12 -42
-9 -51 3 -9 0 -38 -6 -66 -6 -27 -14 -93 -18 -147 -5 -54 -13 -103 -19 -109
-8 -8 -12 -50 -12 -113 0 -56 -5 -106 -10 -111 -11 -11 -16 -887 -5 -904 3 -5
10 -83 15 -172 10 -170 22 -265 46 -359 8 -30 14 -87 14 -127 0 -39 5 -83 10
-98 6 -15 13 -44 15 -63 6 -56 32 -152 44 -164 6 -6 11 -30 11 -53 0 -24 4
-45 9 -49 5 -3 13 -31 17 -63 3 -31 12 -68 19 -82 7 -14 15 -50 19 -81 4 -30
13 -67 20 -81 8 -15 17 -44 21 -67 4 -22 13 -45 21 -52 8 -6 14 -29 14 -54 0
-26 6 -48 15 -55 8 -7 15 -19 15 -26 0 -14 3 -22 33 -82 9 -19 17 -44 17 -56
0 -12 7 -31 15 -42 8 -10 15 -31 15 -47 0 -32 17 -66 43 -85 9 -7 17 -20 17
-29 0 -9 18 -53 40 -98 22 -45 43 -97 46 -114 4 -18 13 -35 21 -38 8 -3 24
-26 35 -52 12 -25 31 -62 43 -81 12 -19 37 -62 55 -95 53 -95 80 -136 95 -142
8 -3 15 -13 15 -22 0 -14 51 -95 70 -111 4 -3 14 -16 23 -30 10 -14 42 -52 71
-85 30 -33 82 -94 116 -135 34 -41 71 -78 81 -82 10 -4 19 -14 19 -23 0 -9 14
-21 30 -26 17 -6 30 -16 30 -23 0 -13 123 -126 158 -145 12 -6 22 -18 22 -27
0 -8 11 -19 25 -24 14 -5 25 -16 25 -25 0 -8 7 -15 15 -15 17 0 95 -49 95 -59
0 -4 23 -20 51 -36 28 -17 57 -42 64 -56 8 -15 41 -39 82 -60 37 -18 77 -42
87 -51 11 -10 23 -18 28 -18 4 0 22 -13 40 -28 36 -30 96 -52 147 -52 23 0 31
-4 31 -18 0 -30 61 -80 152 -124 20 -10 40 -22 43 -28 4 -6 10 -8 15 -5 5 3
30 -9 55 -27 65 -45 87 -58 107 -58 9 0 20 -5 23 -10 3 -6 27 -20 53 -31 26
-12 58 -30 71 -40 12 -10 39 -21 58 -25 19 -4 40 -15 46 -25 7 -11 22 -19 34
-19 12 0 25 -4 28 -10 3 -5 16 -10 27 -10 12 0 36 -11 54 -25 18 -14 39 -25
46 -25 7 0 22 -7 32 -15 11 -8 28 -15 37 -15 10 0 20 -8 24 -19 4 -13 12 -17
30 -13 17 3 34 -4 55 -22 18 -14 42 -26 54 -26 12 0 27 -5 34 -12 12 -12 71
-36 112 -45 14 -3 32 -11 40 -18 8 -7 37 -20 65 -30 27 -9 54 -20 60 -24 5 -4
35 -15 65 -25 55 -18 67 -23 170 -68 66 -30 111 -44 165 -54 22 -3 46 -11 53
-17 7 -5 40 -18 75 -27 34 -10 87 -28 117 -40 30 -13 75 -25 100 -27 44 -4 68
-11 123 -39 16 -8 45 -14 65 -14 20 -1 48 -7 62 -15 14 -8 39 -15 55 -15 17 0
68 -12 115 -26 103 -30 185 -49 265 -60 33 -4 67 -9 75 -11 8 -1 57 -9 108
-18 51 -8 97 -17 101 -19 4 -3 58 -5 121 -7 72 -1 123 -6 135 -14 55 -34 883
-34 1089 0 49 8 106 15 127 15 21 0 50 5 66 11 15 6 55 14 88 19 111 17 260
51 287 65 14 8 42 15 61 15 19 0 40 7 47 15 7 8 25 15 40 15 16 0 41 6 57 14
15 8 55 20 88 27 33 7 66 19 73 26 7 7 22 13 31 13 20 0 64 17 148 56 28 13
55 24 59 24 4 0 15 6 23 14 9 8 30 16 46 19 34 5 87 27 96 40 7 10 82 52 139
78 25 11 52 26 60 33 8 8 32 16 53 20 21 4 37 13 37 21 0 7 24 25 53 39 50 25
87 45 97 56 7 7 114 80 154 105 17 10 36 27 43 36 7 9 26 19 42 22 17 4 32 14
36 27 3 11 12 20 19 20 7 0 30 14 51 30 21 17 42 30 47 30 5 0 23 12 39 28 17
15 42 37 55 49 14 13 36 26 49 29 16 4 25 13 25 26 0 12 11 23 30 30 17 5 35
19 41 29 5 10 17 19 27 19 9 0 44 27 77 60 33 33 64 60 68 60 22 0 77 54 77
76 0 17 6 24 19 24 11 0 45 25 78 55 32 30 63 55 68 55 6 0 29 25 53 56 24 31
56 60 72 66 17 5 30 14 30 19 0 13 76 89 89 89 6 0 19 13 29 28 9 15 46 55 82
88 36 33 133 129 215 213 83 84 193 196 245 250 53 53 107 112 121 131 21 28
110 126 147 162 4 4 46 45 94 91 49 47 91 94 95 105 5 11 37 51 73 89 36 38
78 88 94 111 16 24 41 50 55 57 55 29 81 63 105 138 3 9 15 21 26 25 12 4 26
17 33 29 7 12 35 51 62 87 28 36 61 87 75 113 17 32 33 49 48 51 12 2 22 10
22 18 0 26 59 133 80 144 11 6 20 20 20 31 0 12 14 38 30 59 16 21 30 45 30
53 0 9 4 18 9 22 6 3 13 26 17 50 4 33 16 55 40 79 26 26 34 42 34 70 0 25 6
40 20 48 11 7 20 22 20 33 0 25 22 88 37 106 6 8 18 43 27 78 8 36 20 69 26
75 5 5 10 30 10 53 0 24 6 56 14 71 7 15 16 50 20 77 3 28 13 86 22 130 8 44
19 132 24 195 5 63 14 147 19 185 13 91 14 358 1 425 -5 29 -12 117 -15 197
-2 79 -7 148 -10 153 -4 6 -9 43 -12 82 -2 40 -12 88 -20 107 -11 25 -13 50
-9 92 5 46 3 64 -8 81 -9 13 -16 43 -16 70 0 35 -6 54 -20 68 -15 15 -20 34
-20 78 -1 31 -7 68 -15 82 -8 14 -14 38 -15 54 0 26 -12 74 -41 172 -5 17 -9
43 -9 58 0 15 -5 37 -11 48 -6 11 -14 44 -19 72 -8 60 -42 189 -51 196 -14 11
-29 50 -29 75 0 14 -5 36 -12 48 -6 12 -15 35 -19 52 -4 16 -16 55 -27 85 -30
82 -52 157 -52 173 0 8 -7 20 -15 27 -8 7 -15 28 -15 48 0 19 -6 43 -13 51 -8
9 -20 37 -27 63 -7 26 -19 53 -26 59 -8 6 -14 21 -14 33 0 12 -18 59 -40 104
-22 44 -40 90 -40 100 0 24 -26 76 -45 92 -8 7 -15 20 -15 29 0 10 -9 36 -20
59 -11 22 -20 45 -20 50 0 5 -9 17 -20 27 -11 10 -20 24 -20 32 0 7 -7 16 -15
19 -8 4 -15 17 -15 29 0 13 -6 36 -14 52 -21 43 -92 192 -117 248 -13 28 -37
70 -54 95 -17 25 -35 57 -39 73 -3 15 -15 36 -25 46 -21 21 -51 78 -51 98 0 7
-4 13 -9 13 -8 0 -27 26 -66 91 -6 9 -15 23 -21 30 -6 8 -18 35 -28 61 -10 27
-23 51 -29 55 -15 10 -97 130 -97 142 0 5 -18 27 -40 50 -22 22 -40 47 -40 54
0 7 -8 20 -17 29 -18 16 -42 49 -86 118 -17 27 -33 38 -67 46 -40 9 -45 14
-42 35 5 38 -31 110 -77 154 -23 21 -41 46 -41 54 0 8 -19 34 -42 59 -89 94
-98 104 -98 109 0 3 -43 51 -95 108 -52 56 -95 106 -95 111 0 14 -108 120
-220 218 -25 21 -96 88 -158 147 -62 60 -120 109 -128 109 -9 0 -18 9 -21 19
-3 11 -18 25 -34 32 -17 6 -34 20 -39 30 -6 10 -20 21 -32 25 -13 4 -25 10
-28 13 -11 14 -107 89 -127 100 -12 6 -38 11 -58 11 -31 0 -35 3 -30 19 7 22
-41 81 -65 81 -9 0 -27 11 -40 25 -13 14 -28 25 -33 25 -5 0 -25 14 -44 30
-18 17 -40 30 -48 30 -8 0 -19 9 -25 19 -5 11 -26 25 -45 31 -19 6 -35 16 -35
21 0 5 -19 18 -42 28 -24 10 -56 30 -72 44 -16 14 -54 37 -85 52 -70 34 -68
32 -134 77 -30 21 -76 43 -103 50 -27 7 -64 23 -83 35 -19 13 -43 23 -54 23
-12 0 -30 8 -41 18 -12 10 -39 24 -61 31 -48 16 -104 39 -125 52 -31 18 -83
39 -99 39 -10 0 -26 7 -37 15 -10 8 -29 15 -40 15 -12 0 -43 10 -70 22 -27 11
-62 25 -79 29 -41 10 -95 29 -125 44 -14 7 -59 16 -102 20 -55 5 -81 12 -93
25 -10 11 -38 21 -68 25 -29 4 -83 18 -122 31 -38 13 -80 24 -92 24 -12 0 -77
11 -145 25 -68 14 -161 28 -208 30 -47 2 -112 9 -145 14 -169 28 -383 41 -671
41 -165 0 -304 -3 -308 -7z m210 -2214 c77 -24 122 -48 176 -97 45 -41 100
-128 123 -197 32 -96 95 -523 95 -648 0 -74 17 -141 41 -163 10 -9 38 -19 62
-21 59 -7 91 22 156 140 144 259 412 549 646 699 263 170 562 239 835 194 218
-36 459 -153 617 -300 267 -247 413 -692 413 -1257 0 -543 -160 -1074 -404
-1346 -87 -97 -240 -194 -371 -236 -235 -76 -580 -57 -750 42 -235 136 -348
425 -318 814 22 273 -28 361 -202 359 -394 -4 -631 -459 -720 -1387 -52 -540
-41 -1199 35 -2180 11 -137 24 -313 30 -390 5 -77 12 -158 15 -180 21 -166 34
-428 25 -510 -32 -282 -141 -464 -367 -616 -359 -239 -835 -369 -1355 -369
-159 0 -203 3 -271 21 -199 50 -310 172 -340 374 -11 74 -11 72 54 405 198
1017 302 2147 330 3573 8 441 8 612 -1 725 -33 413 -162 693 -406 888 -166
132 -194 187 -194 372 1 107 3 124 33 202 113 298 441 573 1032 868 323 161
582 239 801 241 87 1 127 -4 180 -20z"/>
</g>
</svg>
